{
  "accessors": [
    {
      "bufferView": 2,
      "componentType": 5126,
      "count": 40868,
      "max": [
        1.4593900442123413,
        1.4869519472122192,
        0.10314799845218658
      ],
      "min": [
        -1.4593909978866577,
        -1.1959710121154785,
        -0.10210900008678436
      ],
      "type": "VEC3"
    },
    {
      "bufferView": 2,
      "byteOffset": 490416,
      "componentType": 5126,
      "count": 40868,
      "max": [
        1.0,
        1.0,
        1.0
      ],
      "min": [
        -1.0,
        -1.0,
        -1.0
      ],
      "type": "VEC3"
    },
    {
      "bufferView": 1,
      "componentType": 5126,
      "count": 40868,
      "max": [
        0.0,
        0.0
      ],
      "min": [
        0.0,
        0.0
      ],
      "type": "VEC2"
    },
    {
      "bufferView": 0,
      "componentType": 5125,
      "count": 232152,
      "type": "SCALAR"
    },
    {
      "bufferView": 2,
      "byteOffset": 980832,
      "componentType": 5126,
      "count": 10252,
      "max": [
        0.28699299693107605,
        1.1797709465026855,
        0.0395359992980957
      ],
      "min": [
        -0.28699299693107605,
        1.092795968055725,
        -0.038676999509334564
      ],
      "type": "VEC3"
    },
    {
      "bufferView": 2,
      "byteOffset": 1103856,
      "componentType": 5126,
      "count": 10252,
      "max": [
        0.7938750982284546,
        0.7939233779907227,
        0.8512608408927917
      ],
      "min": [
        -0.7938750982284546,
        -0.7939233779907227,
        -0.8503069281578064
      ],
      "type": "VEC3"
    },
    {
      "bufferView": 1,
      "byteOffset": 326944,
      "componentType": 5126,
      "count": 10252,
      "max": [
        0.0,
        0.0
      ],
      "min": [
        0.0,
        0.0
      ],
      "type": "VEC2"
    },
    {
      "bufferView": 0,
      "byteOffset": 928608,
      "componentType": 5125,
      "count": 22740,
      "type": "SCALAR"
    },
    {
      "bufferView": 2,
      "byteOffset": 1226880,
      "componentType": 5126,
      "count": 2688,
      "max": [
        0.29035699367523193,
        1.1974170207977295,
        0.0326090008020401
      ],
      "min": [
        -0.29035699367523193,
        1.097856044769287,
        -0.033236999064683914
      ],
      "type": "VEC3"
    },
    {
      "bufferView": 2,
      "byteOffset": 1259136,
      "componentType": 5126,
      "count": 2688,
      "max": [
        1.0,
        0.9646298289299011,
        0.999443769454956
      ],
      "min": [
        -1.0,
        -0.9509559869766235,
        -0.9993818998336792
      ],
      "type": "VEC3"
    },
    {
      "bufferView": 1,
      "byteOffset": 408960,
      "componentType": 5126,
      "count": 2688,
      "max": [
        0.0,
        0.0
      ],
      "min": [
        0.0,
        0.0
      ],
      "type": "VEC2"
    },
    {
      "bufferView": 0,
      "byteOffset": 1019568,
      "componentType": 5125,
      "count": 16128,
      "type": "SCALAR"
    },
    {
      "bufferView": 2,
      "byteOffset": 1291392,
      "componentType": 5126,
      "count": 8388,
      "max": [
        0.12734200060367584,
        1.2110539674758911,
        -0.08420500159263611
      ],
      "min": [
        -0.127128005027771,
        1.0390820503234863,
        -0.19930499792099
      ],
      "type": "VEC3"
    },
    {
      "bufferView": 2,
      "byteOffset": 1392048,
      "componentType": 5126,
      "count": 8388,
      "max": [
        1.0,
        1.0,
        1.0
      ],
      "min": [
        -1.0,
        -1.0,
        -1.0
      ],
      "type": "VEC3"
    },
    {
      "bufferView": 1,
      "byteOffset": 430464,
      "componentType": 5126,
      "count": 8388,
      "max": [
        0.8816909790039063,
        1.0
      ],
      "min": [
        0.0,
        0.0
      ],
      "type": "VEC2"
    },
    {
      "bufferView": 0,
      "byteOffset": 1084080,
      "componentType": 5125,
      "count": 49728,
      "type": "SCALAR"
    },
    {
      "bufferView": 2,
      "byteOffset": 1492704,
      "componentType": 5126,
      "count": 15124,
      "max": [
        1.1137609481811523,
        1.0371489524841309,
        0.10340899974107742
      ],
      "min": [
        -1.1179879903793335,
        -0.6180089712142944,
        -0.15784800052642822
      ],
      "type": "VEC3"
    },
    {
      "bufferView": 2,
      "byteOffset": 1674192,
      "componentType": 5126,
      "count": 15124,
      "max": [
        0.9999740123748779,
        0.9999933242797852,
        1.0
      ],
      "min": [
        -0.9999740123748779,
        -0.9999934434890747,
        -0.9286221265792847
      ],
      "type": "VEC3"
    },
    {
      "bufferView": 1,
      "byteOffset": 497568,
      "componentType": 5126,
      "count": 15124,
      "max": [
        0.0,
        0.0
      ],
      "min": [
        0.0,
        0.0
      ],
      "type": "VEC2"
    },
    {
      "bufferView": 0,
      "byteOffset": 1282992,
      "componentType": 5125,
      "count": 87840,
      "type": "SCALAR"
    },
    {
      "bufferView": 2,
      "byteOffset": 1855680,
      "componentType": 5126,
      "count": 597,
      "max": [
        0.06218700110912323,
        1.2133359909057617,
        -0.11065000295639038
      ],
      "min": [
        -0.061973001807928085,
        1.1855870485305786,
        -0.17285999655723572
      ],
      "type": "VEC3"
    },
    {
      "bufferView": 2,
      "byteOffset": 1862844,
      "componentType": 5126,
      "count": 597,
      "max": [
        0.999995231628418,
        1.0,
        0.9999885559082031
      ],
      "min": [
        -0.999995231628418,
        -0.6630096435546875,
        -0.9999890327453613
      ],
      "type": "VEC3"
    },
    {
      "bufferView": 1,
      "byteOffset": 618560,
      "componentType": 5126,
      "count": 597,
      "max": [
        0.6169989705085754,
        0.5106620192527771
      ],
      "min": [
        0.3830009996891022,
        0.2393379956483841
      ],
      "type": "VEC2"
    },
    {
      "bufferView": 0,
      "byteOffset": 1634352,
      "componentType": 5125,
      "count": 3456,
      "type": "SCALAR"
    },
    {
      "bufferView": 2,
      "byteOffset": 1870008,
      "componentType": 5126,
      "count": 28025,
      "max": [
        1.149530053138733,
        1.0495699644088745,
        0.029577000066637993
      ],
      "min": [
        -1.1537569761276245,
        -0.6203020215034485,
        -0.31807801127433777
      ],
      "type": "VEC3"
    },
    {
      "bufferView": 2,
      "byteOffset": 2206308,
      "componentType": 5126,
      "count": 28025,
      "max": [
        1.0,
        1.0,
        1.0
      ],
      "min": [
        -1.0,
        -1.0,
        -1.0
      ],
      "type": "VEC3"
    },
    {
      "bufferView": 1,
      "byteOffset": 623336,
      "componentType": 5126,
      "count": 28025,
      "max": [
        1.0,
        1.0
      ],
      "min": [
        0.0,
        0.0
      ],
      "type": "VEC2"
    },
    {
      "bufferView": 0,
      "byteOffset": 1648176,
      "componentType": 5125,
      "count": 164784,
      "type": "SCALAR"
    },
    {
      "bufferView": 2,
      "byteOffset": 2542608,
      "componentType": 5126,
      "count": 20,
      "max": [
        0.1862100064754486,
        0.7229830026626587,
        0.019314000383019447
      ],
      "min": [
        -0.1862100064754486,
        0.7229830026626587,
        -0.038651999086141586
      ],
      "type": "VEC3"
    },
    {
      "bufferView": 0,
      "byteOffset": 2307312,
      "componentType": 5125,
      "count": 32,
      "type": "SCALAR"
    },
    {
      "bufferView": 2,
      "byteOffset": 2542848,
      "componentType": 5126,
      "count": 809,
      "max": [
        0.1862100064754486,
        0.4912010133266449,
        0.019314000383019447
      ],
      "min": [
        -0.1862100064754486,
        0.4884929955005646,
        -0.038651999086141586
      ],
      "type": "VEC3"
    },
    {
      "bufferView": 2,
      "byteOffset": 2552556,
      "componentType": 5126,
      "count": 809,
      "max": [
        1.0,
        0.046301282942295074,
        0.00019999999494757503
      ],
      "min": [
        -1.0,
        -0.04810204356908798,
        -9.999999747378752e-05
      ],
      "type": "VEC3"
    },
    {
      "bufferView": 1,
      "byteOffset": 847536,
      "componentType": 5126,
      "count": 809,
      "max": [
        0.0,
        0.0
      ],
      "min": [
        0.0,
        0.0
      ],
      "type": "VEC2"
    },
    {
      "bufferView": 0,
      "byteOffset": 2307440,
      "componentType": 5125,
      "count": 1692,
      "type": "SCALAR"
    },
    {
      "bufferView": 2,
      "byteOffset": 2562264,
      "componentType": 5126,
      "count": 32141,
      "max": [
        0.3696100115776062,
        1.2368839979171753,
        0.1060900017619133
      ],
      "min": [
        -0.3696100115776062,
        -0.3353550136089325,
        -0.2961759865283966
      ],
      "type": "VEC3"
    },
    {
      "bufferView": 2,
      "byteOffset": 2947956,
      "componentType": 5126,
      "count": 32141,
      "max": [
        1.0,
        1.0,
        1.0
      ],
      "min": [
        -1.0,
        -1.0,
        -1.0
      ],
      "type": "VEC3"
    },
    {
      "bufferView": 1,
      "byteOffset": 854008,
      "componentType": 5126,
      "count": 32141,
      "max": [
        1.0,
        1.0
      ],
      "min": [
        0.5,
        -0.09094300121068954
      ],
      "type": "VEC2"
    },
    {
      "bufferView": 0,
      "byteOffset": 2314208,
      "componentType": 5125,
      "count": 191862,
      "type": "SCALAR"
    }
  ],
  "asset": {
    "extras": {
      "author": "Kira (https://sketchfab.com/GalaninaKira)",
      "license": "CC-BY-4.0 (http://creativecommons.org/licenses/by/4.0/)",
      "source": "https://sketchfab.com/3d-models/drone-eac2b4bc20f54b3ba8c3ddbcdf03c8d6",
      "title": "Drone"
    },
    "generator": "Sketchfab-15.36.0",
    "version": "2.0"
  },
  "bufferViews": [
    {
      "buffer": 0,
      "byteLength": 3081656,
      "name": "floatBufferViews",
      "target": 34963
    },
    {
      "buffer": 0,
      "byteLength": 1111136,
      "byteOffset": 3081656,
      "byteStride": 8,
      "name": "floatBufferViews",
      "target": 34962
    },
    {
      "buffer": 0,
      "byteLength": 3333648,
      "byteOffset": 4192792,
      "byteStride": 12,
      "name": "floatBufferViews",
      "target": 34962
    }
  ],
  "buffers": [
    {
      "byteLength": 7526440,
      "uri": "scene.bin"
    }
  ],
  "materials": [
    {
      "doubleSided": true,
      "name": "black",
      "pbrMetallicRoughness": {
        "baseColorFactor": [
          0.0,
          0.0,
          0.0,
          1.0
        ],
        "metallicFactor": 0.0,
        "roughnessFactor": 0.808572175646229
      }
    },
    {
      "doubleSided": true,
      "name": "chrome",
      "pbrMetallicRoughness": {
        "metallicFactor": 0.0,
        "roughnessFactor": 0.7618109393999147
      }
    },
    {
      "doubleSided": true,
      "name": "glass",
      "pbrMetallicRoughness": {
        "baseColorFactor": [
          0.8,
          0.8,
          0.8,
          1.0
        ],
        "metallicFactor": 0.0,
        "roughnessFactor": 0.7188293374048255
      }
    },
    {
      "doubleSided": true,
      "name": "grey",
      "pbrMetallicRoughness": {
        "baseColorFactor": [
          0.207915,
          0.207915,
          0.207915,
          1.0
        ],
        "metallicFactor": 0.0,
        "roughnessFactor": 0.8011823178082373
      }
    }
  ],
  "meshes": [
    {
      "name": "Object_0",
      "primitives": [
        {
          "attributes": {
            "NORMAL": 1,
            "POSITION": 0,
            "TEXCOORD_0": 2
          },
          "indices": 3,
          "material": 0,
          "mode": 4
        }
      ]
    },
    {
      "name": "Object_1",
      "primitives": [
        {
          "attributes": {
            "NORMAL": 5,
            "POSITION": 4,
            "TEXCOORD_0": 6
          },
          "indices": 7,
          "material": 0,
          "mode": 4
        }
      ]
    },
    {
      "name": "Object_2",
      "primitives": [
        {
          "attributes": {
            "NORMAL": 9,
            "POSITION": 8,
            "TEXCOORD_0": 10
          },
          "indices": 11,
          "material": 0,
          "mode": 4
        }
      ]
    },
    {
      "name": "Object_3",
      "primitives": [
        {
          "attributes": {
            "NORMAL": 13,
            "POSITION": 12,
            "TEXCOORD_0": 14
          },
          "indices": 15,
          "material": 0,
          "mode": 4
        }
      ]
    },
    {
      "name": "Object_4",
      "primitives": [
        {
          "attributes": {
            "NORMAL": 17,
            "POSITION": 16,
            "TEXCOORD_0": 18
          },
          "indices": 19,
          "material": 1,
          "mode": 4
        }
      ]
    },
    {
      "name": "Object_5",
      "primitives": [
        {
          "attributes": {
            "NORMAL": 21,
            "POSITION": 20,
            "TEXCOORD_0": 22
          },
          "indices": 23,
          "material": 2,
          "mode": 4
        }
      ]
    },
    {
      "name": "Object_6",
      "primitives": [
        {
          "attributes": {
            "NORMAL": 25,
            "POSITION": 24,
            "TEXCOORD_0": 26
          },
          "indices": 27,
          "material": 3,
          "mode": 4
        }
      ]
    },
    {
      "name": "Object_7",
      "primitives": [
        {
          "attributes": {
            "POSITION": 28
          },
          "indices": 29,
          "material": 3,
          "mode": 1
        }
      ]
    },
    {
      "name": "Object_8",
      "primitives": [
        {
          "attributes": {
            "NORMAL": 31,
            "POSITION": 30,
            "TEXCOORD_0": 32
          },
          "indices": 33,
          "material": 3,
          "mode": 4
        }
      ]
    },
    {
      "name": "Object_9",
      "primitives": [
        {
          "attributes": {
            "NORMAL": 35,
            "POSITION": 34,
            "TEXCOORD_0": 36
          },
          "indices": 37,
          "material": 3,
          "mode": 4
        }
      ]
    }
  ],
  "nodes": [
    {
      "children": [
        1
      ],
      "matrix": [
        1.0,
        0.0,
        0.0,
        0.0,
        0.0,
        3.828568672208042e-16,
        -1.0,
        0.0,
        0.0,
        1.0,
        3.828568672208042e-16,
        0.0,
        0.0,
        0.0,
        0.0,
        1.0
      ],
      "name": "Sketchfab_model"
    },
    {
      "children": [
        2,
        3,
        4,
        5,
        6,
        7,
        8,
        9,
        10,
        11
      ],
      "name": "Drone.obj.cleaner.materialmerger.gles"
    },
    {
      "mesh": 0,
      "name": "Object_2"
    },
    {
      "mesh": 1,
      "name": "Object_3"
    },
    {
      "mesh": 2,
      "name": "Object_4"
    },
    {
      "mesh": 3,
      "name": "Object_5"
    },
    {
      "mesh": 4,
      "name": "Object_6"
    },
    {
      "mesh": 5,
      "name": "Object_7"
    },
    {
      "mesh": 6,
      "name": "Object_8"
    },
    {
      "mesh": 7,
      "name": "Object_9"
    },
    {
      "mesh": 8,
      "name": "Object_10"
    },
    {
      "mesh": 9,
      "name": "Object_11"
    }
  ],
  "scene": 0,
  "scenes": [
    {
      "name": "Sketchfab_Scene",
      "nodes": [
        0
      ]
    }
  ]
}
